<svg style="position: absolute; width: 0; height: 0; overflow: hidden;" aria-hidden="true" version="1.1" xmlns="http://www.w3.org/2000/svg" xmlns:xlink="http://www.w3.org/1999/xlink">
    <style>
        .default-palette, .palette0 {color: currentColor;
            --color0: #2f2f37;
            --color1: #000;
            --color2: #f07f2e;
        }
    </style>
    <defs>
        <symbol id="youtube" viewBox="0 0 16 16" fill="none">
            <path fill="var(--color0, #2f2f37)" d="M8.1627 2.6667c0.356 2e-3 1.2467 0.0106 2.1933 0.0486L10.692 2.73c0.9527 0.0447 1.9047 0.122 2.3774 0.2533 0.63 0.1774 1.1246 0.6934 1.292 1.348 0.2666 1.04 0.3 3.068 0.304 3.5594l6e-4 0.1013v0.116c-46e-4 0.4913-0.038 2.52-0.3046 3.5593-0.1694 0.6567-0.6647 1.1734-1.292 1.348-0.4727 0.1314-1.4247 0.2087-2.3774 0.2534l-0.336 0.0153c-0.9466 0.0373-1.8373 0.0467-2.1933 0.048l-0.1567 7e-4h-0.17c-0.7533-47e-4-3.904-0.0387-4.9066-0.3174-0.6294-0.1773-1.1247-0.6933-1.292-1.348-0.2667-1.04-0.3-3.068-0.304-3.5593l0-0.2173c4e-3-0.4914 0.0373-2.52 0.304-3.5594C1.8067 3.6747 2.302 3.158 2.93 2.984 3.932 2.7047 7.0834 2.6707 7.8367 2.6667zM6.666 5.6667l0 4.6666 4-2.3333z" />
        </symbol>
        <symbol id="twitter" viewBox="0 0 16 16" fill="none">
            <path fill="var(--color0, #2f2f37)" d="M5.026 15c6.038 0 9.341-5.003 9.341-9.334 0-0.14 0-0.282-6e-3-0.422 0.6431-0.4655 1.1981-1.0419 1.639-1.702-0.6007 0.2648-1.2372 0.4394-1.889 0.518 0.6865-0.4104 1.2007-1.056 1.447-1.817-0.645 0.3821-1.351 0.6504-2.087 0.793-0.4948-0.527-1.1496-0.8761-1.8629-0.9932-0.7133-0.1172-1.4454 41e-4-2.0828 0.3451C8.888 2.729 8.3808 3.2706 8.0825 3.9291 7.7841 4.5875 7.7112 5.3259 7.875 6.03 6.5697 5.9646 5.2928 5.6255 4.127 5.0347 2.9613 4.444 1.9327 3.6148 1.108 2.601 0.6893 3.3241 0.5616 4.1794 0.7506 4.9933 0.9397 5.8071 1.4314 6.5185 2.126 6.983 1.6055 6.9653 1.0965 6.8256 0.64 6.575V6.62c9e-4 0.7575 0.2633 1.4914 0.7429 2.0778C1.8624 9.2841 2.5298 9.6869 3.272 9.838 2.9903 9.9156 2.6992 9.9543 2.407 9.953c-0.206 6e-4-0.4116-0.0185-0.614-0.057 0.2098 0.6521 0.6183 1.2222 1.1683 1.6305 0.5499 0.4083 1.2138 0.6343 1.8987 0.6465-1.1634 0.9138-2.6006 1.4094-4.08 1.407-0.2607 11e-4-0.5212-0.0139-0.78-0.045 1.5015 0.9573 3.2453 1.4655 5.026 1.465z" />
        </symbol>
        <symbol id="tiktok" viewBox="0 0 16 16" fill="none">
            <path fill="var(--color0, #2f2f37)" d="M10.6667 5.4967v4.8366c-2e-4 0.9001-0.2807 1.7777-0.8024 2.5111-0.5218 0.7333-1.2589 1.2861-2.1091 1.5814s-1.7713 0.3186-2.6353 0.0665c-0.864-0.252-1.6281-0.7668-2.1862-1.4729-0.5581-0.7061-0.8825-1.5685-0.9281-2.4673C1.9599 9.6532 2.1953 8.7624 2.679 8.0034c0.4838-0.759 1.1918-1.3485 2.0259-1.6867 0.834-0.3383 1.7527-0.4084 2.6284-0.2007l0 2.1087C6.8766 8.008 6.3617 7.9455 5.8664 8.0467 5.3711 8.1479 4.922 8.4072 4.5867 8.7857 4.2515 9.1641 4.0483 9.6412 4.0076 10.1451 3.9669 10.649 4.091 11.1525 4.3612 11.5799c0.2702 0.4273 0.6719 0.7553 1.1445 0.9346 0.4727 0.1793 0.9909 0.2002 1.4765 0.0596 0.4857-0.1406 0.9125-0.4351 1.2163-0.8392 0.3038-0.4041 0.4681-0.896 0.4682-1.4016l0-9 2 0c0 0.8841 0.3512 1.7319 0.9763 2.3571 0.6251 0.6251 1.4729 0.9763 2.357 0.9763v2c-1.2121 18e-4-2.3883-0.4111-3.3333-1.17z" />
        </symbol>
        <symbol id="instagram" viewBox="0 0 16 16" fill="none">
            <path fill="var(--color0, #2f2f37)" d="M8.6854 1.334c0.4865-19e-4 0.973 3e-3 1.4593 0.0147l0.1294 46e-4c0.1493 54e-4 0.2966 0.012 0.4746 0.02 0.7094 0.0334 1.1934 0.1454 1.618 0.31 0.44 0.1694 0.8107 0.3987 1.1814 0.7694 0.3389 0.333 0.6012 0.7359 0.7686 1.1806 0.1647 0.4247 0.2767 0.9094 0.31 1.6187 8e-3 0.1773 0.0147 0.3253 0.02 0.4747l4e-3 0.1293c0.0119 0.4861 0.017 0.9724 0.0154 1.4587l6e-4 0.4973v0.8733c17e-4 0.4865-34e-4 0.973-0.0153 1.4594l-4e-3 0.1293c-53e-4 0.1493-0.012 0.2967-0.02 0.4747-0.0333 0.7093-0.1467 1.1933-0.3107 1.618-0.1669 0.4451-0.4292 0.8484-0.7686 1.1813-0.3334 0.3389-0.7365 0.6012-1.1814 0.7687-0.4246 0.1646-0.9086 0.2766-1.618 0.31-0.178 8e-3-0.3253 0.0146-0.4746 0.02l-0.1294 4e-3c-0.4863 0.0118-0.9728 0.0169-1.4593 0.0153l-0.4973 7e-4H7.3154c-0.4865 16e-4-0.973-35e-4-1.4593-0.0154l-0.1294-4e-3c-0.1582-57e-4-0.3165-0.0124-0.4746-0.02-0.7094-0.0333-1.1934-0.1466-1.6187-0.3106-0.4449-0.1671-0.8479-0.4295-1.1807-0.7687-0.3393-0.3331-0.6018-0.7363-0.7693-1.1813-0.1647-0.4247-0.2767-0.9087-0.31-1.618-74e-4-0.1582-0.0141-0.3165-0.02-0.4747l-33e-4-0.1293C1.3378 9.6583 1.3322 9.1718 1.3334 8.6853l0-1.3706c-19e-4-0.4863 3e-3-0.9726 0.0147-1.4587l46e-4-0.1293c54e-4-0.1494 0.012-0.2974 0.02-0.4747 0.0334-0.71 0.1454-1.1933 0.31-1.6187 0.1676-0.4449 0.4307-0.8477 0.7707-1.18 0.3326-0.3395 0.7353-0.6023 1.18-0.77 0.4253-0.1646 0.9087-0.2766 1.6187-0.31l0.4746-0.02 0.1294-33e-4c0.4861-0.0123 0.9723-0.0178 1.4586-0.0167zM8.0001 4.6673C7.5584 4.6611 7.1199 4.7427 6.71 4.9074 6.3002 5.0721 5.9272 5.3166 5.6126 5.6267 5.2981 5.9368 5.0483 6.3064 4.8778 6.7138 4.7074 7.1213 4.6196 7.5586 4.6196 8.0003c0 0.4417 0.0878 0.879 0.2582 1.2865 0.1705 0.4075 0.4203 0.777 0.7348 1.0872 0.3146 0.3101 0.6876 0.5546 1.0974 0.7193 0.4099 0.1647 0.8484 0.2463 1.2901 0.24 0.884 0 1.7319-0.3512 2.357-0.9763 0.6251-0.6251 0.9763-1.473 0.9763-2.357s-0.3512-1.7319-0.9763-2.357c-0.6251-0.6251-1.473-0.9757-2.357-0.9757zM8.0001 6.0007c0.2656-49e-4 0.5296 0.0432 0.7765 0.1414 0.2469 0.0983 0.4717 0.2448 0.6613 0.4309 0.1896 0.1862 0.3403 0.4082 0.4431 0.6532C9.9839 7.4712 10.0369 7.7343 10.0369 8c0 0.2657-0.0529 0.5288-0.1556 0.7738C9.7785 9.0189 9.628 9.241 9.4384 9.4271 9.2488 9.6134 9.0241 9.7599 8.7772 9.8583 8.5304 9.9566 8.2664 10.0048 8.0007 10 7.4703 10 6.9616 9.7893 6.5865 9.4142 6.2114 9.0391 6.0007 8.5304 6.0007 8c0-0.5304 0.2107-1.0392 0.5858-1.4142C6.9616 6.2107 7.4703 6 8.0007 6zM11.5001 3.6673c-0.2151 86e-4-0.4185 0.1001-0.5676 0.2553-0.1492 0.1553-0.2324 0.3621-0.2324 0.5774 0 0.2152 0.0832 0.4221 0.2324 0.5774 0.1491 0.1552 0.3525 0.2466 0.5676 0.2553 0.221 0 0.4329-0.0878 0.5892-0.2441 0.1563-0.1563 0.2441-0.3683 0.2441-0.5893 0-0.221-0.0878-0.4329-0.2441-0.5892-0.1563-0.1563-0.3682-0.2441-0.5892-0.2441z" />
        </symbol>
        <symbol id="github" viewBox="0 0 16 16" fill="none">
            <path fill="var(--color0, #2f2f37)" d="M8 0C3.58 0 0 3.58 0 8c0 3.54 2.29 6.53 5.47 7.59 0.4 0.07 0.55-0.17 0.55-0.38 0-0.19-0.01-0.82-0.01-1.49-2.01 0.37-2.53-0.49-2.69-0.94-0.09-0.23-0.48-0.94-0.82-1.13-0.28-0.15-0.68-0.52-0.01-0.53 0.63-0.01 1.08 0.58 1.23 0.82 0.72 1.21 1.87 0.87 2.33 0.66 0.07-0.52 0.28-0.87 0.51-1.07-1.78-0.2-3.64-0.89-3.64-3.95 0-0.87 0.31-1.59 0.82-2.15-0.08-0.2-0.36-1.02 0.08-2.12 0 0 0.67-0.21 2.2 0.82 0.64-0.18 1.32-0.27 2-0.27s1.36 0.09 2 0.27c1.53-1.04 2.2-0.82 2.2-0.82 0.44 1.1 0.16 1.92 0.08 2.12 0.51 0.56 0.82 1.27 0.82 2.15 0 3.07-1.87 3.75-3.65 3.95 0.29 0.25 0.54 0.73 0.54 1.48 0 1.07-0.01 1.93-0.01 2.2 0 0.21 0.15 0.46 0.55 0.38 1.5882-0.536 2.9683-1.5567 3.946-2.9182C15.4737 11.3102 15.9997 9.6762 16 8c0-4.42-3.58-8-8-8z" />
            <defs>
                <clipPath id="clip0_6901_7">
                    <rect fill="#fff" width="16" height="16" />
                </clipPath>
            </defs>
        </symbol>
        <symbol id="facebook" viewBox="0 0 16 16" fill="none">
            <path fill="var(--color0, #2f2f37)" d="M10.6646 2.6567l1.4607 0v-2.544C11.8733 0.078 11.0066 0 9.9973 0 7.8913 0 6.4486 1.3247 6.4486 3.7593l0 2.2407h-2.324l0 2.844h2.324l0 7.156H9.298l0-7.1553 2.23 0 0.354-2.844-2.5847 0V4.0413c7e-4-0.822 0.222-1.3846 1.3673-1.3846z" />
        </symbol>
        <symbol id="cat-logo" viewBox="0 0 24 24" stroke-width="0.4" stroke="var(--color1, #000)" fill="var(--color1, #000)" stroke-miterlimit="10">
            <path stroke="none" d="M1.9162 8.0201c0 0-0.3552-6.6092 1.0809-6.9397C4.4332 0.75 6.9105 3.1214 6.9105 3.1214z" />
            <path stroke="none" d="M15.4817 3.2818c0 0 2.6513-2.6402 4.5303-2.2004 1.8778 0.4399 0.4429 5.6586 0.4429 5.6586z" />
            <path fill="var(--color2, #f07f2e)" d="M20.6684 20.1065c-1.9901 1.5724-3.321 2.0866-5.5832 2.6987-1.5098 0.4084-5.3125 0.388-8.8559-1.0382-2.4822-1.0859-3.4551-2.2667-3.9236-2.9102-0.4078-0.5597-1.2375-1.8017-1.285-3.1603-0.069-1.9779-0.0111-3.9073 0.8968-7.6738 0.9079-3.7678 4.9942-4.8988 4.9942-4.8988 4.4649-1.0542 8.1726-0.2257 9.4592 0 1.2865 0.2258 4.9416 2.5402 5.2559 7.1782 0.0479 0.6935 0.8253 3.1606 0.8998 5.2327 0.0228 0.6355 0.0409 1.4816-0.2754 2.3495-0.3649 1.001-1.1797 1.8847-1.5828 2.2222z" />
            <path stroke="none" d="M8.3615 10.7475c0.0315-0.0594 0.0677-0.1164 0.1063-0.1722 0.0187-0.0268 0.0374-0.0536 0.0561-0.0803 0.0105-0.014 0.0222-0.0291 0.0327-0.0431 0.0257-0.0361-0.0572 0.0687-47e-4 58e-4 0.0538-0.0651 0.1087-0.128 0.1695-0.1873 0.0315-0.0314 0.0642-0.0617 0.0981-0.0908 0.0117-0.0104 0.0713-0.0581 0.0246-0.0221-0.0468 0.0361 0.021-0.0139 0.0362-0.0244 0.0374-0.0256 0.0771-0.05 0.118-0.071 0.0199-0.0105 0.0409-0.0198 0.0619-0.0302 0.0409-0.021-0.0736 0.0232 71e-4-12e-4 0.0444-0.014 0.0888-0.0244 0.1332-0.0349 0.0595-0.0151-0.076 23e-4-0.0141 23e-4 0.0269 0 0.0538-35e-4 0.0818-23e-4 0.0246 0 0.0491 46e-4 0.0725 46e-4 0.0444 0-0.0713-0.0197-0.0292-34e-4 93e-4 35e-4 0.0222 34e-4 0.0327 69e-4 0.0257 7e-3 0.0514 0.0128 0.0759 0.021 0.0106 35e-4 0.0222 81e-4 0.0328 0.0116 0.0689 0.0198-0.0398-0.0256-59e-4-23e-4 0.0573 0.0384 0.1239 0.0675 0.1823 0.1059 0.0117 81e-4 0.0234 0.0163 0.0351 0.0256-0.0561-0.0431 0 11e-4 0.0105 0.0116 0.0315 0.0291 0.0643 0.057 0.0946 0.0873 0.1566 0.1559 0.2524 0.292 0.3716 0.484 0.0993 0.1595 0.3132 0.2223 0.4791 0.1257 0.1601-0.0931 0.2255-0.3165 0.1262-0.4771-0.3751-0.6015-0.9441-1.2101-1.7224-1.074-0.4674 0.0815-0.8331 0.4492-1.1007 0.8157-0.0608 0.0826-0.1192 0.1687-0.1671 0.2583-0.0888 0.1664-0.0421 0.3794 0.1262 0.4771 0.1577 0.0896 0.3903 0.0396 0.4791-0.1268z" />
            <path stroke="none" d="M18.6007 10.2484c0.0304-0.057 0.0655-0.1117 0.1017-0.1652 0.0175-0.0256 0.0351-0.0512 0.0537-0.0768 0.0106-0.014 0.0211-0.0279 0.0304-0.0419 0.0257-0.0349-0.0584 0.071-58e-4 93e-4 0.0514-0.0617 0.104-0.1222 0.1624-0.1792 0.0304-0.0303 0.0619-0.0593 0.0947-0.0861 0.0116-0.0105 0.0701-0.057 0.0222-0.0198-0.0479 0.0373 0.0175-0.0128 0.0327-0.0221 0.0362-0.0244 0.0736-0.0477 0.1122-0.0686 0.0198-0.0105 0.0397-0.0198 0.0584-0.0291 0.0409-0.021-0.0771 0.0244 35e-4 0 0.0421-0.0128 0.0853-0.0233 0.1285-0.0338 0.0585-0.0139-0.0783 35e-4-0.0175 23e-4 0.0257 0 0.0514-34e-4 0.0783-23e-4 0.0234 0 0.0467 47e-4 0.0701 47e-4 0.0444 0-0.0736-0.0198-0.0327-35e-4 93e-4 35e-4 0.021 35e-4 0.0304 58e-4 0.0245 7e-3 0.049 0.0128 0.0724 0.0198 0.0105 35e-4 0.0211 81e-4 0.0316 0.0105 0.0677 0.0197-0.0421-0.0268-94e-4-47e-4 0.0549 0.0372 0.118 0.064 0.1741 0.1024 0.0117 81e-4 0.0222 0.0163 0.0327 0.0244-0.0596-0.0453-46e-4-23e-4 71e-4 82e-4 0.0303 0.0279 0.0619 0.0547 0.0911 0.0838 0.1531 0.1524 0.2349 0.2711 0.3541 0.4607 0.0993 0.1594 0.3131 0.2223 0.479 0.1257 0.1601-0.0931 0.2256-0.3165 0.1262-0.4771-0.3634-0.5818-0.9137-1.167-1.6663-1.0356-0.4522 0.0792-0.8039 0.4341-1.0633 0.7878-0.0584 0.0791-0.1133 0.1617-0.1601 0.2478-0.0888 0.1664-0.0421 0.3794 0.1262 0.4771 0.1601 0.0931 0.3926 0.0431 0.4814-0.1245z" />
            <path fill="none" d="M10.6222 13.7718 6.9963 13.6555" />
            <path fill="none" d="M10.6823 15.0162l-3.148 0.4654" />
            <path fill="none" d="M20.174 13.2346l3.6258-0.1164" />
            <path fill="none" d="M20.1146 14.4751l3.148 0.4643" />
            <path fill="none" d="M14.9868 14.6354c0 0 1.754 2.418 3.238-0.0442" />
            <path fill="none" d="M16.6202 12.8287v2.7309" />
            <path stroke="none" d="M16.5883 12.9516c0.7344 0 1.3298-0.4178 1.3298-0.9332s-0.5954-0.9332-1.3298-0.9332-1.3298 0.4178-1.3298 0.9332 0.5954 0.9332 1.3298 0.9332z" />
            <path d="M4.9402 11.6311c1.179-1.2159-2.5894-3.7677-2.8675-3.8771-0.0117-46e-4-1.0715 4.7709-1.0173 7.646 0.0126 0.6715 0.1402 1.3705 0.1402 1.3705 0.2208 0.1954 0.3653 0.8252 2.0175 0.0212 0.9243-0.4503 1.1066-1.3673 0.2653-1.5441-1.6184-0.3386 47e-4-0.6993-0.2606-1.3393-0.6696-1.6151 0.4826-0.9984 1.7224-2.2772z" />
            <path d="M20.9513 16.374c0.1368-1.4301 1.4789-1.0264 1.4789-1.0264 0.4467 2.6104-1.1155 4.3836-2.2416 5.0042-0.2735 0-0.5355-1.5959 0.0792-1.7995 0.6146-0.2037 0.5468-0.7482 0.6835-2.1783z" />
        </symbol>
    </defs>
</svg>